<svg width="20" height="21" viewBox="0 0 20 21" fill="none" xmlns="http://www.w3.org/2000/svg">
<path fill-rule="evenodd" clip-rule="evenodd" d="M2 3.32051C2 1.76279 3.27093 0.5 4.83871 0.5H13.0832C13.6651 0.5 14.2114 0.778536 14.5507 1.24826L17.6611 5.55379C17.8815 5.85885 18 6.2249 18 6.60041V17.6795C18 19.2372 16.7291 20.5 15.1613 20.5H4.83871C3.27093 20.5 2 19.2372 2 17.6795V3.32051ZM4.83871 2.03846C4.12608 2.03846 3.54839 2.61246 3.54839 3.32051V17.6795C3.54839 18.3875 4.12608 18.9615 4.83871 18.9615H15.1613C15.8739 18.9615 16.4516 18.3875 16.4516 17.6795V7.31748H13.0968C12.6692 7.31748 12.3226 6.97309 12.3226 6.54825V2.03846H4.83871Z" fill="black"/>
<path d="M13.1852 11.7498C12.9181 12.0815 12.4309 12.1353 12.097 11.8699L10.7743 10.8185V14.3462C10.7743 14.771 10.4276 15.1154 10.0001 15.1154C9.57248 15.1154 9.22586 14.771 9.22586 14.3462V10.8184L7.90302 11.8699C7.56914 12.1353 7.08194 12.0815 6.81484 11.7498C6.54774 11.418 6.60187 10.934 6.93575 10.6686L9.51364 8.61947C9.645 8.51394 9.8118 8.45024 9.99353 8.44875C9.9957 8.44873 9.99788 8.44872 10.0001 8.44872L10.0026 8.44872C10.1874 8.4493 10.3571 8.51427 10.4899 8.62225L13.0643 10.6686C13.3982 10.934 13.4523 11.418 13.1852 11.7498Z" fill="black"/>
</svg>
