<svg width="31" height="30" viewBox="0 0 31 30" fill="none" xmlns="http://www.w3.org/2000/svg">
<g clip-path="url(#clip0_18_126)">
<path d="M11.6396 3.00339C11.5502 3.86917 11.7801 4.7378 12.2863 5.44683C12.3203 5.48077 12.7287 6.02375 13.1712 6.26131L13.5966 6.4819C13.2004 6.59848 12.8181 6.75779 12.4565 6.95701C11.9065 7.26997 11.4168 7.6779 11.01 8.16176C10.1081 9.2647 9.81883 10.7749 9.81883 10.7749H5.80281C5.71118 10.8067 5.62507 10.8525 5.54755 10.9106C5.47429 10.954 5.41061 11.0117 5.36037 11.0803C5.27528 11.1821 5.22423 11.2839 5.20721 11.3009L5.12213 11.6063C5.12213 12.8281 5.10511 14.0667 5.10511 15.3054C5.1326 15.3797 5.17292 15.4486 5.22423 15.509C5.28758 15.5762 5.35584 15.6386 5.42844 15.6957C5.50647 15.7489 5.59269 15.789 5.68369 15.8145C5.76848 15.8665 5.86011 15.9065 5.95596 15.9333H9.68269V19.0724C9.69917 19.1826 9.7277 19.2907 9.76777 19.3948C9.81073 19.5493 9.87365 19.6976 9.95496 19.836C10.037 19.9719 10.1279 20.1023 10.2272 20.2262C10.3842 20.4154 10.5676 20.5812 10.7718 20.7183C10.9437 20.8333 11.1334 20.9193 11.3333 20.9728L11.6226 21.0068C11.6396 23.3824 11.6396 25.7579 11.6396 28.1335C11.6589 28.2598 11.6874 28.3846 11.7247 28.5068C11.7871 28.6624 11.867 28.8104 11.963 28.948C12.0529 29.1218 12.1676 29.2818 12.3033 29.4231C12.4462 29.5523 12.6066 29.6608 12.7798 29.7455L13.1712 29.9491L13.3584 30C9.63447 29.551 6.21116 27.7369 3.75422 24.9107C1.29727 22.0844 -0.0176858 18.448 0.0650841 14.7086C0.147854 10.9692 1.62243 7.39421 4.20204 4.6788C6.78165 1.9634 10.2819 0.301735 14.022 0.0169678C13.8549 0.0470994 13.694 0.104425 13.5456 0.186651C13.0234 0.467875 12.5774 0.870968 12.2455 1.36148C11.9136 1.852 11.7057 2.41535 11.6396 3.00339Z" fill="#FF8B8B"/>
<path d="M30.2223 15.0339C30.2171 18.7343 28.8481 22.3037 26.3756 25.0631C23.9032 27.8226 20.4998 29.5796 16.8129 30L17.0341 29.9321L17.4255 29.7285C17.5939 29.6445 17.7487 29.5358 17.8849 29.4061C18.0269 29.2662 18.1473 29.1061 18.2423 28.931C18.3382 28.7934 18.4182 28.6454 18.4805 28.4898C18.5179 28.3676 18.5463 28.2428 18.5656 28.1165V20.9898L18.8719 20.9559C19.0665 20.9023 19.2507 20.8163 19.4165 20.7014C19.6275 20.5665 19.8168 20.4006 19.978 20.2093C20.0773 20.0853 20.1683 19.9549 20.2503 19.819C20.3235 19.6768 20.3861 19.5293 20.4375 19.3778C20.4731 19.2735 20.4959 19.1652 20.5055 19.0554C20.5055 18.0034 20.5226 16.9683 20.5226 15.9163H24.2493L24.5216 15.7975C24.6072 15.7718 24.6878 15.7316 24.7598 15.6787C24.8417 15.6268 24.9161 15.564 24.981 15.4921C25.0323 15.4317 25.0727 15.3627 25.1001 15.2885C25.0831 14.0498 25.0831 12.8111 25.0661 11.5894C25.0526 11.484 25.024 11.3811 24.981 11.2839C24.9495 11.2027 24.9034 11.128 24.8449 11.0634C24.787 10.9956 24.718 10.9382 24.6407 10.8937C24.5668 10.8394 24.4868 10.7939 24.4024 10.7579H20.3864C20.3864 10.7579 20.0971 9.24774 19.1782 8.1448C18.7791 7.65338 18.2878 7.24418 17.7318 6.94005C17.3774 6.73834 17.0004 6.57888 16.6087 6.46493L17.0171 6.24435C17.4595 6.00679 17.8679 5.4638 17.9019 5.42987C18.2049 5.01506 18.4144 4.53992 18.5162 4.03692C18.6179 3.53393 18.6095 3.01495 18.4916 2.51548C18.3736 2.01601 18.1489 1.54784 17.8327 1.14298C17.5166 0.738115 17.1164 0.406114 16.6597 0.169685C16.5096 0.0872817 16.3494 0.0245451 16.1832 -0.0169678C19.9994 0.253675 23.5705 1.95758 26.1761 4.75093C28.7816 7.54427 30.2276 11.2191 30.2223 15.0339Z" fill="#4DD0E1"/>
</g>
<defs>
<clipPath id="clip0_18_126">
<rect width="30.2222" height="30" fill="white"/>
</clipPath>
</defs>
</svg>
